# xmcd CD database file
#
# Track frame offsets:
#	150
#	24309
#	39459
#	58013
#	71478
#	88836
#	122152
#	145793
#	186739
#	216215
#	235614
#	277552
#
# Disc length: 3998 seconds
#
# Revision: 1
# Processed by: cddbd v1.5.2PL0 Copyright (c) Steve Scherf et al.
# Submitted via: CDex 1.70beta2
#
DISCID=a80f9c0c
DTITLE=The Spiders - The Spiders En Vivo Fachada De Piedra [Limited Edition]
DYEAR=1994
DGENRE=Blues-Rock
TTITLE0=Back
TTITLE1=Run Run
TTITLE2=Nothing More To Say
TTITLE3=I Am A Man
TTITLE4=54th Avenue
TTITLE5=Walking Blues
TTITLE6=A Whiter Shade Of Pale
TTITLE7=Stormy Monday
TTITLE8=You Aint Got Nothing On Me
TTITLE9=Maybe
TTITLE10=Summertime - Sleep Walk
TTITLE11=Every Day
EXTD=YEAR: 1994
EXTT0=
EXTT1=
EXTT2=
EXTT3=
EXTT4=
EXTT5=
EXTT6=
EXTT7=
EXTT8=
EXTT9=
EXTT10=
EXTT11=
PLAYORDER=
